<?xml version="1.0" standalone="no"?>
<!DOCTYPE svg PUBLIC "-//W3C//DTD SVG 20010904//EN"
 "http://www.w3.org/TR/2001/REC-SVG-20010904/DTD/svg10.dtd">
<svg version="1.0" xmlns="http://www.w3.org/2000/svg"
 width="260.000000pt" height="260.000000pt" viewBox="0 0 260.000000 260.000000"
 preserveAspectRatio="xMidYMid meet">
<metadata>
Created by potrace 1.11, written by Peter Selinger 2001-2013
</metadata>
<g transform="translate(0.000000,260.000000) scale(0.100000,-0.100000)"
fill="#000000" stroke="none">
<path d="M740 2000 c-19 -19 -20 -33 -20 -307 l0 -288 25 -23 c13 -13 28 -42
33 -65 7 -30 10 50 11 271 l1 313 25 24 c22 23 32 25 113 25 86 0 89 1 110 30
12 16 22 32 22 35 0 3 -67 5 -150 5 -137 0 -152 -2 -170 -20z"/>
<path d="M1465 2010 c-3 -5 -2 -10 3 -10 5 0 15 -11 22 -25 13 -24 17 -25 107
-25 141 0 133 19 133 -313 l0 -273 35 -17 35 -17 0 335 c0 320 -1 335 -19 345
-25 13 -308 13 -316 0z"/>
<path d="M1015 1930 c-4 -7 82 -10 250 -10 168 0 254 3 250 10 -4 6 -98 10
-250 10 -152 0 -246 -4 -250 -10z"/>
<path d="M1384 1837 c-2 -7 -3 -65 -2 -128 l3 -114 119 -3 c89 -2 121 1 128
10 4 7 8 59 8 115 0 134 1 133 -141 133 -81 0 -111 -3 -115 -13z m155 -57
c-23 -27 -50 -50 -59 -50 -9 0 -27 11 -40 25 -13 14 -29 25 -37 25 -7 0 -13
11 -13 25 0 25 0 25 96 25 l95 0 -42 -50z m81 -75 l0 -95 -115 0 -115 0 0 65
c0 36 4 65 9 65 6 0 22 -16 37 -35 14 -19 34 -35 44 -35 10 0 42 29 71 64 30
36 57 65 62 65 4 1 7 -42 7 -94z"/>
<path d="M870 1635 c-7 -8 -10 -22 -6 -30 5 -13 35 -15 218 -13 199 3 213 4
216 22 2 10 -2 22 -10 27 -7 5 -101 9 -209 9 -162 0 -199 -3 -209 -15z"/>
<path d="M1380 1335 l0 -125 124 0 c141 0 136 -3 136 86 0 39 4 54 14 54 7 0
19 7 26 15 10 12 7 17 -14 26 -14 7 -27 16 -27 21 -1 4 -3 13 -4 18 -1 6 -3
15 -4 20 -1 6 -50 10 -126 10 l-125 0 0 -125z m190 107 c0 -4 -19 -29 -43 -56
l-43 -49 -36 31 c-19 18 -41 32 -47 32 -12 0 -15 32 -4 43 9 10 173 9 173 -1z
m50 -122 l0 -101 -112 3 -113 3 -3 63 c-2 34 0 62 5 62 4 0 25 -17 46 -37 l39
-38 66 73 c36 39 67 72 69 72 2 0 3 -45 3 -100z"/>
<path d="M863 1245 c-3 -9 -1 -21 4 -26 5 -5 95 -8 219 -7 201 3 209 4 209 23
0 19 -8 20 -213 23 -186 2 -213 0 -219 -13z"/>
<path d="M1734 1149 c-7 -12 10 -30 51 -51 14 -8 11 -1 -10 23 -16 19 -31 35
-31 37 -1 2 -5 -2 -10 -9z"/>
<path d="M1765 1150 c-3 -6 1 -7 9 -4 18 7 21 14 7 14 -6 0 -13 -4 -16 -10z"/>
<path d="M1384 1067 c-2 -7 -3 -65 -2 -128 l3 -114 114 -3 c75 -2 118 1 127 9
10 8 14 39 14 114 0 57 -3 110 -6 119 -5 13 -26 16 -125 16 -90 0 -121 -3
-125 -13z m236 -117 l0 -110 -115 0 -115 0 0 110 0 110 115 0 115 0 0 -110z"/>
<path d="M1730 808 c0 -124 -2 -140 -20 -158 -19 -19 -33 -20 -443 -20 -371 0
-425 2 -445 16 -13 9 -25 14 -26 13 -8 -10 -23 -89 -18 -94 3 -3 226 -5 497
-5 377 0 495 3 508 13 22 17 25 135 4 218 -9 35 -18 75 -21 89 -3 14 -12 34
-20 45 -14 18 -15 7 -16 -117z"/>
<path d="M870 870 c-12 -7 -12 -13 -4 -27 10 -16 31 -18 220 -18 l209 0 0 25
0 25 -205 2 c-120 2 -211 -1 -220 -7z"/>
<path d="M2330 623 c-57 -52 -60 -58 -44 -70 26 -19 43 -16 81 13 50 38 67 68
53 93 -6 12 -15 21 -20 21 -5 0 -37 -26 -70 -57z"/>
<path d="M240 145 l0 -145 255 0 255 0 0 145 0 145 -255 0 -255 0 0 -145z
m488 98 c5 -17 -26 -29 -40 -15 -6 6 -7 15 -3 22 9 14 37 9 43 -7z m0 -60 c5
-17 -26 -29 -40 -15 -6 6 -7 15 -3 22 9 14 37 9 43 -7z m-3 -53 c4 -6 1 -17
-5 -26 -15 -18 -42 0 -33 22 6 16 29 19 38 4z"/>
<path d="M1820 145 l0 -145 260 0 260 0 0 145 0 145 -260 0 -260 0 0 -145z
m78 98 c5 -17 -26 -29 -40 -15 -6 6 -7 15 -3 22 9 14 37 9 43 -7z m0 -60 c5
-17 -26 -29 -40 -15 -6 6 -7 15 -3 22 9 14 37 9 43 -7z m-1 -59 c3 -8 1 -20
-5 -26 -15 -15 -43 8 -35 28 7 19 32 18 40 -2z"/>
</g>
</svg>
